<svg width="318" height="207" viewBox="0 0 318 207" fill="none" xmlns="http://www.w3.org/2000/svg">
<g clip-path="url(#clip0_847_29449)">
<path d="M251.82 206.068H245.718C245.005 206.068 244.322 205.784 243.818 205.279C243.314 204.775 243.031 204.091 243.03 203.377V152.45C243.031 151.736 243.314 151.052 243.818 150.548C244.322 150.043 245.005 149.759 245.718 149.759H251.82C252.532 149.759 253.215 150.043 253.719 150.548C254.223 151.052 254.506 151.736 254.507 152.45V203.377C254.506 204.091 254.223 204.775 253.719 205.279C253.215 205.784 252.532 206.068 251.82 206.068Z" fill="#004EEB"/>
<path d="M235.203 206.068H229.1C228.388 206.068 227.705 205.784 227.201 205.279C226.697 204.775 226.414 204.091 226.413 203.377V152.45C226.414 151.736 226.697 151.052 227.201 150.548C227.705 150.043 228.388 149.759 229.1 149.759H235.203C235.915 149.759 236.598 150.043 237.102 150.548C237.606 151.052 237.889 151.736 237.89 152.45V203.377C237.889 204.091 237.606 204.775 237.102 205.279C236.598 205.784 235.915 206.068 235.203 206.068Z" fill="#004EEB"/>
<path d="M237.784 193.959H225.794C225.301 193.958 224.828 193.762 224.479 193.413C224.13 193.063 223.934 192.59 223.934 192.096V150.282C223.934 149.788 224.13 149.314 224.479 148.965C224.828 148.616 225.301 148.42 225.794 148.419H237.784C238.277 148.42 238.75 148.616 239.099 148.965C239.448 149.314 239.644 149.788 239.644 150.282V192.096C239.644 192.59 239.448 193.063 239.099 193.413C238.75 193.762 238.277 193.958 237.784 193.959Z" fill="#2F2E41"/>
<path d="M254.735 193.959H242.745C242.252 193.958 241.779 193.762 241.43 193.413C241.081 193.063 240.885 192.59 240.885 192.096V150.282C240.885 149.788 241.081 149.314 241.43 148.965C241.779 148.616 242.252 148.42 242.745 148.419H254.735C255.228 148.42 255.701 148.616 256.05 148.965C256.399 149.314 256.595 149.788 256.596 150.282V192.096C256.595 192.59 256.399 193.063 256.05 193.413C255.701 193.762 255.228 193.958 254.735 193.959Z" fill="#2F2E41"/>
<path d="M234.279 121.505C234.109 121.622 233.932 121.731 233.75 121.83L191.738 144.677C191.427 144.845 191.087 144.951 190.736 144.988C190.385 145.025 190.03 144.993 189.692 144.892C189.354 144.792 189.038 144.626 188.764 144.404C188.49 144.181 188.262 143.907 188.093 143.596L185.181 138.227L185.363 138.128L185.181 138.227C184.842 137.599 184.765 136.863 184.967 136.179C185.169 135.495 185.634 134.919 186.26 134.578L228.273 111.731C229.563 111.029 231.073 110.85 232.491 111.229C233.91 111.608 235.129 112.517 235.898 113.769C236.668 115.021 236.929 116.521 236.628 117.96C236.327 119.399 235.486 120.667 234.279 121.505Z" fill="#004EEB"/>
<path d="M240.898 96.6096C252.543 96.6096 261.984 87.1565 261.984 75.4956C261.984 63.8347 252.543 54.3816 240.898 54.3816C229.253 54.3816 219.812 63.8347 219.812 75.4956C219.812 87.1565 229.253 96.6096 240.898 96.6096Z" fill="#004EEB"/>
<path d="M243.364 84.3589C241.997 84.3209 240.296 84.2734 238.986 83.3148C238.595 83.0176 238.275 82.6386 238.046 82.2044C237.818 81.7701 237.687 81.291 237.662 80.8007C237.639 80.4522 237.696 80.103 237.829 79.7803C237.963 79.4576 238.169 79.1702 238.432 78.9405C239.116 78.3613 240.116 78.2255 241.193 78.5425L240.077 70.3761L240.896 70.2637L242.208 79.8643L241.524 79.55C240.731 79.1857 239.642 79.0003 238.965 79.5728C238.799 79.7225 238.67 79.9085 238.587 80.1164C238.504 80.3243 238.471 80.5485 238.489 80.7716C238.509 81.1365 238.607 81.4928 238.777 81.8163C238.947 82.1397 239.184 82.4227 239.473 82.6461C240.493 83.392 241.849 83.4882 243.387 83.5313L243.364 84.3589Z" fill="white"/>
<path d="M236.025 71.0803H231.571V71.9083H236.025V71.0803Z" fill="white"/>
<path d="M250.082 71.0803H245.629V71.9083H250.082V71.0803Z" fill="white"/>
<path d="M242.373 54.3193C242.528 51.8234 243.217 49.39 244.393 47.184C245.569 44.9779 247.205 43.0506 249.19 41.5326C251.24 40.0122 253.606 38.974 256.113 38.4954C258.619 38.0167 261.201 38.1099 263.666 38.7679C266.116 39.4053 268.389 40.5912 270.314 42.2363C272.239 43.8813 273.767 45.9425 274.781 48.2645C275.801 50.5693 276.31 53.0683 276.273 55.5892C276.161 58.3306 275.481 61.0187 274.276 63.483C273.033 66.1956 271.465 68.7405 270.103 71.3921C268.761 74.0069 267.604 76.7124 266.639 79.4887C264.676 85.1457 263.518 91.0512 263.199 97.0315C262.692 106.459 263.593 120.221 274.221 123.839C276.924 124.759 279.839 124.931 282.673 124.923C285.657 124.959 288.634 124.61 291.529 123.884C296.546 122.543 301.309 119.393 303.447 114.498C303.939 113.368 304.27 112.174 304.428 110.951C304.472 110.615 304.111 110.333 303.808 110.33C303.644 110.333 303.489 110.4 303.373 110.516C303.258 110.631 303.191 110.787 303.188 110.951C302.495 116.166 298.155 120.166 293.443 121.964C290.69 122.963 287.797 123.523 284.87 123.625C281.957 123.772 278.932 123.749 276.079 123.078C273.54 122.528 271.23 121.212 269.459 119.309C267.88 117.489 266.702 115.356 266.002 113.049C264.325 107.921 264.149 102.284 264.444 96.9396C264.777 90.9789 265.961 85.0967 267.957 79.4715C268.966 76.6313 270.182 73.8697 271.597 71.2089C272.979 68.6064 274.513 66.0774 275.678 63.3648C276.814 60.8714 277.439 58.1749 277.515 55.4352C277.524 52.905 277.022 50.3992 276.037 48.0689C275.069 45.7294 273.618 43.6213 271.779 41.8831C269.94 40.145 267.754 38.816 265.366 37.9835C262.936 37.1365 260.356 36.8077 257.792 37.018C255.227 37.2283 252.735 37.9732 250.475 39.2049C248.326 40.4423 246.442 42.0941 244.934 44.0648C243.425 46.0355 242.322 48.286 241.688 50.6863C241.379 51.8751 241.193 53.0925 241.133 54.3193C241.092 55.1181 242.332 55.1159 242.373 54.3193V54.3193Z" fill="#2F2E41"/>
<path d="M246.496 54.7552C246.835 52.4517 247.987 50.3462 249.745 48.8214C251.613 47.2537 254.007 46.4578 256.44 46.596C257.238 46.636 257.236 45.3938 256.44 45.354C253.796 45.2346 251.199 46.0928 249.145 47.7653C247.091 49.4378 245.723 51.8081 245.3 54.4251C245.181 55.207 246.376 55.5441 246.496 54.7552H246.496Z" fill="#2F2E41"/>
<path d="M246.941 56.3903C246.7 56.3902 246.46 56.3514 246.23 56.2752L240.341 54.3282C240.058 54.2344 239.795 54.0856 239.569 53.8904C239.343 53.6951 239.157 53.4571 239.023 53.1901C238.889 52.923 238.808 52.6321 238.786 52.3339C238.764 52.0357 238.801 51.7361 238.895 51.4521C238.989 51.1682 239.137 50.9055 239.332 50.6791C239.527 50.4526 239.765 50.2669 240.032 50.1324C240.298 49.9979 240.589 49.9174 240.887 49.8954C241.184 49.8733 241.484 49.9102 241.767 50.004L247.656 51.9511C248.169 52.1208 248.606 52.4682 248.886 52.9308C249.167 53.3935 249.274 53.9412 249.188 54.4757C249.102 55.0101 248.829 55.4964 248.417 55.8473C248.005 56.1982 247.482 56.3907 246.941 56.3903Z" fill="#2F2E41"/>
<path d="M247.876 104.742H246.86C246.871 104.673 246.877 104.604 246.88 104.535C246.88 102.82 244.288 101.43 241.091 101.43C237.895 101.43 235.303 102.82 235.303 104.535C235.305 104.604 235.312 104.673 235.323 104.742H234.307C226.409 104.742 220.006 112.086 220.006 121.145V155.25C220.006 155.689 220.18 156.11 220.49 156.421C220.8 156.731 221.221 156.906 221.66 156.906H260.523C260.962 156.906 261.383 156.731 261.693 156.421C262.003 156.11 262.177 155.689 262.177 155.25V121.145C262.177 112.086 255.774 104.742 247.876 104.742Z" fill="#2F2E41"/>
<path d="M195.34 111.462H73.7376C73.644 111.462 73.5543 111.418 73.4881 111.34C73.4219 111.262 73.3848 111.157 73.3848 111.047V1.63928C73.3848 1.52937 73.4219 1.42395 73.4881 1.34624C73.5543 1.26852 73.644 1.22485 73.7376 1.22485H134.539C134.632 1.22485 134.722 1.26852 134.788 1.34624C134.854 1.42395 134.891 1.52937 134.891 1.63928C134.891 1.74919 134.854 1.8546 134.788 1.93232C134.722 2.01004 134.632 2.0537 134.539 2.0537H74.0905V110.633H194.987V56.3432C194.987 56.2333 195.024 56.1279 195.09 56.0502C195.156 55.9724 195.246 55.9288 195.34 55.9288C195.433 55.9288 195.523 55.9724 195.589 56.0502C195.655 56.1279 195.692 56.2333 195.692 56.3432V111.047C195.692 111.157 195.655 111.262 195.589 111.34C195.523 111.418 195.433 111.462 195.34 111.462Z" fill="#3F3D56"/>
<path d="M201.995 142.15C201.832 142.15 201.669 142.129 201.511 142.086C201.274 142.023 201.053 141.914 200.859 141.765C200.665 141.616 200.503 141.43 200.381 141.218L193.766 129.745C193.644 129.533 193.564 129.299 193.533 129.057C193.501 128.814 193.517 128.568 193.58 128.331C193.643 128.095 193.752 127.873 193.901 127.679C194.05 127.485 194.235 127.322 194.447 127.2L223.091 110.64C225.038 109.515 227.351 109.21 229.523 109.792C231.694 110.375 233.545 111.797 234.669 113.746C235.793 115.696 236.097 118.012 235.516 120.186C234.934 122.361 233.513 124.214 231.567 125.34L202.922 141.9C202.641 142.064 202.321 142.15 201.995 142.15Z" fill="#2F2E41"/>
<path d="M317.587 207H160.065C159.955 207 159.85 206.956 159.772 206.879C159.695 206.801 159.651 206.696 159.651 206.586C159.651 206.476 159.695 206.371 159.772 206.293C159.85 206.216 159.955 206.172 160.065 206.172H317.587C317.696 206.172 317.802 206.216 317.879 206.293C317.957 206.371 318 206.476 318 206.586C318 206.696 317.957 206.801 317.879 206.879C317.802 206.956 317.696 207 317.587 207Z" fill="#3F3D56"/>
<path d="M259.751 166.594C259.521 167.059 259.161 167.448 258.716 167.714C258.271 167.979 257.758 168.111 257.24 168.092L251.142 167.868C250.43 167.841 249.758 167.532 249.273 167.009C248.788 166.487 248.53 165.793 248.555 165.08L250.312 117.239C250.339 116.485 250.515 115.744 250.829 115.058C251.143 114.372 251.588 113.754 252.14 113.241C252.692 112.727 253.34 112.328 254.046 112.065C254.753 111.802 255.504 111.681 256.257 111.708C257.01 111.736 257.75 111.912 258.436 112.226C259.121 112.54 259.737 112.987 260.25 113.539C260.763 114.092 261.162 114.741 261.425 115.448C261.688 116.155 261.808 116.908 261.781 117.662L260.024 165.502C260.011 165.881 259.918 166.253 259.751 166.594Z" fill="#004EEB"/>
<path d="M261.764 151.317H248.533C248.04 151.316 247.567 151.12 247.218 150.771C246.87 150.421 246.673 149.948 246.673 149.454V116.334C246.673 114.083 247.566 111.924 249.155 110.333C250.745 108.741 252.901 107.847 255.148 107.847C257.396 107.847 259.552 108.741 261.142 110.333C262.731 111.924 263.624 114.083 263.624 116.334V149.454C263.623 149.948 263.427 150.421 263.078 150.771C262.73 151.12 262.257 151.316 261.764 151.317Z" fill="#2F2E41"/>
<path d="M124.937 86.9636C123.893 86.9601 122.853 86.8257 121.842 86.5635L121.642 86.5084L121.457 86.4158C114.774 83.0673 109.135 78.6445 104.698 73.27C101.025 68.7949 98.1617 63.714 96.2362 58.2556C93.9337 51.7206 92.826 44.8251 92.9659 37.8983C92.9687 37.7529 92.9711 37.6407 92.9711 37.5633C92.9711 34.1962 94.8415 31.2417 97.7363 30.0365C99.9518 29.1141 120.067 20.8581 121.521 20.2616C124.258 18.8911 127.178 20.035 127.645 20.235C128.693 20.6632 147.289 28.2633 151.308 30.1753C155.449 32.1459 156.554 35.6861 156.554 37.4672C156.554 45.5309 155.156 53.067 152.4 59.8663C150.174 65.3698 147.019 70.4506 143.072 74.8874C135.458 83.4498 127.841 86.4853 127.768 86.512C126.858 86.825 125.9 86.9778 124.937 86.9636ZM123.146 82.5302C123.806 82.6782 125.327 82.9001 126.318 82.5389C127.576 82.0801 133.951 78.7769 139.909 72.0782C148.139 62.8228 152.316 51.188 152.322 37.497C152.307 37.2196 152.11 35.2413 149.488 33.9938C145.547 32.1187 126.219 24.2213 126.024 24.1417L125.971 24.1191C125.566 23.9495 124.276 23.5922 123.388 24.0575L123.21 24.1404C122.994 24.2288 101.641 32.9922 99.3642 33.9404C97.7711 34.6036 97.2035 36.2468 97.2035 37.5633C97.2035 37.6595 97.2011 37.7995 97.1975 37.9804C97.0155 47.3483 99.185 70.3998 123.146 82.5302Z" fill="#3F3D56"/>
<path d="M122.434 22.5123C122.434 22.5123 101.127 31.2617 98.8441 32.2128C96.5612 33.1638 95.4198 35.4462 95.4198 37.7287C95.4198 40.0112 93.7077 69.7942 122.434 84.1943C122.434 84.1943 125.041 84.9155 127.019 84.1943C128.997 83.473 154.108 71.2999 154.108 37.6336C154.108 37.6336 154.108 34.2099 150.113 32.3079C146.118 30.4058 126.803 22.5123 126.803 22.5123C126.803 22.5123 124.431 21.4662 122.434 22.5123Z" fill="#004EEB"/>
<path opacity="0.1" d="M124.754 29.3965V75.9409C124.754 75.9409 102.543 65.6239 102.74 38.5008L124.754 29.3965Z" fill="black"/>
<path d="M124.701 62.4675L117.415 53.5251L121.652 50.3795L125.102 54.6135L136.756 42.8699L140.654 46.3945L124.701 62.4675Z" fill="white"/>
</g>
<defs>
<clipPath id="clip0_847_29449">
<rect width="318" height="207" fill="white"/>
</clipPath>
</defs>
</svg>
