<svg width="318" height="207" viewBox="0 0 318 207" fill="none" xmlns="http://www.w3.org/2000/svg">
<g clip-path="url(#clip0_868_102962)">
<path d="M251.82 206.068H245.718C245.006 206.067 244.323 205.784 243.819 205.279C243.315 204.775 243.032 204.091 243.031 203.377V152.449C243.032 151.736 243.315 151.052 243.819 150.547C244.323 150.043 245.006 149.759 245.718 149.758H251.82C252.533 149.759 253.216 150.043 253.72 150.547C254.224 151.052 254.507 151.736 254.508 152.449V203.377C254.507 204.091 254.224 204.775 253.72 205.279C253.216 205.784 252.533 206.067 251.82 206.068Z" fill="#004EEB"/>
<path d="M235.203 206.068H229.1C228.388 206.067 227.705 205.784 227.201 205.279C226.697 204.775 226.414 204.091 226.413 203.377V152.449C226.414 151.736 226.697 151.052 227.201 150.547C227.705 150.043 228.388 149.759 229.1 149.758H235.203C235.915 149.759 236.598 150.043 237.102 150.547C237.606 151.052 237.889 151.736 237.89 152.449V203.377C237.889 204.091 237.606 204.775 237.102 205.279C236.598 205.784 235.915 206.067 235.203 206.068Z" fill="#004EEB"/>
<path d="M237.784 193.959H225.794C225.301 193.958 224.828 193.762 224.479 193.413C224.13 193.063 223.934 192.59 223.934 192.096V150.282C223.934 149.788 224.13 149.315 224.479 148.965C224.828 148.616 225.301 148.42 225.794 148.419H237.784C238.277 148.42 238.75 148.616 239.099 148.965C239.448 149.315 239.644 149.788 239.644 150.282V192.096C239.644 192.59 239.448 193.063 239.099 193.413C238.75 193.762 238.277 193.958 237.784 193.959Z" fill="#2F2E41"/>
<path d="M254.735 193.959H242.745C242.252 193.958 241.779 193.762 241.43 193.413C241.081 193.063 240.885 192.59 240.885 192.096V150.282C240.885 149.788 241.081 149.315 241.43 148.965C241.779 148.616 242.252 148.42 242.745 148.419H254.735C255.228 148.42 255.701 148.616 256.05 148.965C256.399 149.315 256.595 149.788 256.596 150.282V192.096C256.595 192.59 256.399 193.063 256.05 193.413C255.701 193.762 255.228 193.958 254.735 193.959Z" fill="#2F2E41"/>
<path d="M234.279 121.505C234.109 121.623 233.932 121.731 233.75 121.83L191.738 144.677C191.427 144.846 191.087 144.951 190.736 144.988C190.385 145.025 190.03 144.993 189.692 144.892C189.354 144.792 189.038 144.626 188.764 144.404C188.49 144.181 188.262 143.907 188.093 143.596L185.181 138.227L185.363 138.128L185.181 138.227C184.842 137.599 184.765 136.863 184.967 136.179C185.169 135.495 185.634 134.919 186.26 134.578L228.273 111.731C229.563 111.03 231.073 110.85 232.491 111.229C233.91 111.608 235.129 112.518 235.898 113.77C236.668 115.022 236.929 116.521 236.628 117.96C236.327 119.399 235.486 120.667 234.279 121.505Z" fill="#004EEB"/>
<path d="M240.898 96.6096C252.543 96.6096 261.984 87.1566 261.984 75.4956C261.984 63.8347 252.543 54.3816 240.898 54.3816C229.253 54.3816 219.812 63.8347 219.812 75.4956C219.812 87.1566 229.253 96.6096 240.898 96.6096Z" fill="#004EEB"/>
<path d="M243.363 84.3589C241.997 84.3209 240.296 84.2734 238.985 83.3148C238.595 83.0177 238.274 82.6387 238.046 82.2044C237.817 81.7701 237.686 81.291 237.662 80.8007C237.638 80.4523 237.695 80.103 237.829 79.7803C237.962 79.4577 238.168 79.1702 238.431 78.9405C239.116 78.3614 240.115 78.2255 241.192 78.5425L240.076 70.3761L240.895 70.2637L242.207 79.8644L241.523 79.55C240.73 79.1858 239.641 79.0004 238.965 79.5729C238.799 79.7225 238.669 79.9086 238.587 80.1165C238.504 80.3244 238.47 80.5486 238.488 80.7716C238.508 81.1365 238.607 81.4928 238.777 81.8163C238.946 82.1398 239.184 82.4228 239.473 82.6461C240.493 83.392 241.849 83.4883 243.386 83.5313L243.363 84.3589Z" fill="white"/>
<path d="M236.025 71.0804H231.571V71.9084H236.025V71.0804Z" fill="white"/>
<path d="M250.082 71.0804H245.628V71.9084H250.082V71.0804Z" fill="white"/>
<path d="M242.374 54.3192C242.529 51.8233 243.218 49.39 244.394 47.1839C245.57 44.9778 247.205 43.0505 249.19 41.5325C251.24 40.0121 253.607 38.9739 256.113 38.4953C258.619 38.0166 261.201 38.1098 263.667 38.7678C266.116 39.4052 268.389 40.5911 270.315 42.2362C272.24 43.8812 273.767 45.9424 274.781 48.2644C275.802 50.5692 276.311 53.0682 276.274 55.5891C276.161 58.3305 275.481 61.0186 274.276 63.4829C273.033 66.1955 271.465 68.7404 270.103 71.392C268.762 74.0069 267.604 76.7123 266.64 79.4886C264.677 85.1457 263.518 91.0512 263.199 97.0314C262.693 106.458 263.594 120.221 274.221 123.839C276.924 124.759 279.84 124.93 282.673 124.923C285.657 124.959 288.634 124.61 291.529 123.884C296.546 122.543 301.309 119.392 303.447 114.498C303.94 113.368 304.27 112.173 304.428 110.95C304.473 110.615 304.111 110.333 303.808 110.329C303.645 110.333 303.489 110.4 303.374 110.516C303.258 110.631 303.192 110.787 303.188 110.95C302.496 116.166 298.156 120.166 293.443 121.964C290.69 122.963 287.797 123.523 284.87 123.624C281.957 123.772 278.932 123.749 276.08 123.078C273.541 122.527 271.23 121.212 269.459 119.309C267.88 117.489 266.702 115.356 266.003 113.048C264.325 107.921 264.15 102.284 264.444 96.9395C264.778 90.9788 265.961 85.0966 267.958 79.4714C268.966 76.6313 270.183 73.8696 271.598 71.2088C272.979 68.6063 274.514 66.0774 275.678 63.3647C276.815 60.8713 277.44 58.1749 277.516 55.4352C277.525 52.9049 277.022 50.3991 276.037 48.0688C275.07 45.7293 273.618 43.6212 271.779 41.8831C269.94 40.1449 267.755 38.8159 265.366 37.9834C262.936 37.1364 260.356 36.8076 257.792 37.0179C255.228 37.2282 252.736 37.9731 250.476 39.2048C248.326 40.4422 246.443 42.094 244.934 44.0647C243.426 46.0354 242.323 48.2859 241.688 50.6862C241.38 51.875 241.194 53.0924 241.133 54.3192C241.092 55.118 242.333 55.1158 242.374 54.3192V54.3192Z" fill="#2F2E41"/>
<path d="M246.497 54.7552C246.835 52.4517 247.988 50.3461 249.745 48.8214C251.613 47.2537 254.008 46.4578 256.441 46.596C257.239 46.6359 257.237 45.3938 256.441 45.354C253.796 45.2346 251.2 46.0927 249.146 47.7653C247.092 49.4378 245.723 51.808 245.301 54.4251C245.182 55.207 246.377 55.5441 246.497 54.7552H246.497Z" fill="#2F2E41"/>
<path d="M246.942 56.3903C246.7 56.3902 246.46 56.3514 246.231 56.2753L240.342 54.3282C240.058 54.2344 239.796 54.0857 239.57 53.8904C239.343 53.6951 239.158 53.4572 239.024 53.1901C238.889 52.923 238.809 52.6321 238.787 52.3339C238.765 52.0357 238.802 51.7361 238.895 51.4522C238.989 51.1683 239.138 50.9056 239.333 50.6791C239.528 50.4527 239.765 50.2669 240.032 50.1325C240.299 49.998 240.589 49.9174 240.887 49.8954C241.185 49.8734 241.484 49.9103 241.768 50.004L247.657 51.9511C248.17 52.1209 248.606 52.4682 248.887 52.9309C249.168 53.3935 249.275 53.9412 249.189 54.4757C249.102 55.0102 248.829 55.4965 248.417 55.8473C248.006 56.1982 247.483 56.3907 246.942 56.3903Z" fill="#2F2E41"/>
<path d="M247.876 104.742H246.86C246.871 104.673 246.877 104.604 246.88 104.535C246.88 102.82 244.288 101.43 241.091 101.43C237.895 101.43 235.303 102.82 235.303 104.535C235.305 104.604 235.312 104.673 235.323 104.742H234.307C226.409 104.742 220.006 112.086 220.006 121.145V155.25C220.006 155.689 220.18 156.11 220.49 156.421C220.8 156.732 221.221 156.906 221.66 156.906H260.523C260.962 156.906 261.383 156.732 261.693 156.421C262.003 156.11 262.177 155.689 262.177 155.25V121.145C262.177 112.086 255.774 104.742 247.876 104.742Z" fill="#2F2E41"/>
<path d="M195.34 111.462H73.7376C73.644 111.462 73.5543 111.418 73.4881 111.34C73.4219 111.262 73.3848 111.157 73.3848 111.047V1.63928C73.3848 1.52937 73.4219 1.42395 73.4881 1.34624C73.5543 1.26852 73.644 1.22485 73.7376 1.22485H134.539C134.632 1.22485 134.722 1.26852 134.788 1.34624C134.854 1.42395 134.891 1.52937 134.891 1.63928C134.891 1.74919 134.854 1.8546 134.788 1.93232C134.722 2.01004 134.632 2.0537 134.539 2.0537H74.0905V110.633H194.987V56.3432C194.987 56.2333 195.024 56.1279 195.09 56.0502C195.156 55.9724 195.246 55.9288 195.34 55.9288C195.433 55.9288 195.523 55.9724 195.589 56.0502C195.655 56.1279 195.692 56.2333 195.692 56.3432V111.047C195.692 111.157 195.655 111.262 195.589 111.34C195.523 111.418 195.433 111.462 195.34 111.462Z" fill="#3F3D56"/>
<path d="M201.995 142.15C201.832 142.15 201.669 142.129 201.511 142.086C201.274 142.023 201.053 141.914 200.859 141.765C200.665 141.616 200.503 141.43 200.381 141.218L193.766 129.745C193.644 129.533 193.564 129.299 193.533 129.057C193.501 128.814 193.517 128.568 193.58 128.331C193.643 128.095 193.752 127.873 193.901 127.679C194.05 127.485 194.235 127.322 194.447 127.2L223.091 110.64C225.038 109.515 227.351 109.21 229.523 109.792C231.694 110.375 233.545 111.797 234.669 113.746C235.793 115.696 236.097 118.012 235.516 120.187C234.934 122.361 233.513 124.214 231.567 125.34L202.922 141.9C202.641 142.064 202.321 142.15 201.995 142.15Z" fill="#2F2E41"/>
<path d="M317.587 207H160.065C159.955 207 159.85 206.956 159.772 206.879C159.695 206.801 159.651 206.696 159.651 206.586C159.651 206.476 159.695 206.371 159.772 206.293C159.85 206.216 159.955 206.172 160.065 206.172H317.587C317.696 206.172 317.802 206.216 317.879 206.293C317.957 206.371 318 206.476 318 206.586C318 206.696 317.957 206.801 317.879 206.879C317.802 206.956 317.696 207 317.587 207Z" fill="#3F3D56"/>
<path d="M259.751 166.594C259.521 167.059 259.161 167.448 258.716 167.714C258.271 167.979 257.758 168.111 257.24 168.092L251.142 167.868C250.43 167.841 249.758 167.532 249.273 167.01C248.788 166.487 248.53 165.793 248.555 165.08L250.312 117.239C250.339 116.485 250.515 115.744 250.829 115.058C251.143 114.372 251.588 113.754 252.14 113.241C252.692 112.727 253.34 112.328 254.046 112.065C254.753 111.802 255.504 111.681 256.257 111.708C257.01 111.736 257.75 111.912 258.436 112.226C259.121 112.54 259.737 112.987 260.25 113.539C260.763 114.092 261.162 114.741 261.425 115.448C261.688 116.155 261.808 116.908 261.781 117.662L260.024 165.502C260.011 165.881 259.918 166.253 259.751 166.594Z" fill="#004EEB"/>
<path d="M261.764 151.317H248.533C248.04 151.316 247.567 151.12 247.218 150.771C246.87 150.421 246.673 149.948 246.673 149.454V116.334C246.673 114.083 247.566 111.924 249.155 110.333C250.745 108.741 252.901 107.847 255.148 107.847C257.396 107.847 259.552 108.741 261.142 110.333C262.731 111.924 263.624 114.083 263.624 116.334V149.454C263.623 149.948 263.427 150.421 263.078 150.771C262.73 151.12 262.257 151.316 261.764 151.317Z" fill="#2F2E41"/>
<path d="M170.095 57.9046C171.7 38.5219 157.287 21.5087 137.905 19.9046C118.522 18.3004 101.509 32.7127 99.9046 52.0954C98.3004 71.4781 112.713 88.4913 132.095 90.0954C151.478 91.6996 168.491 77.2872 170.095 57.9046Z" fill="#004EEB"/>
<path d="M144.37 40.1377L135 49.5082L125.63 40.1377C124.113 38.6208 121.654 38.6208 120.138 40.1377C118.621 41.6545 118.621 44.1139 120.138 45.6307L129.507 55.0013L120.138 64.3718C118.622 65.8901 118.625 68.3495 120.143 69.8649C121.659 71.3784 124.114 71.3784 125.63 69.8649L135 60.4944L144.37 69.8649C145.888 71.3804 148.347 71.3781 149.862 69.8598C151.376 68.3435 151.376 65.8881 149.862 64.3718L140.493 55.0013L149.862 45.6307C151.379 44.1139 151.379 41.6545 149.862 40.1377C148.346 38.6208 145.887 38.6208 144.37 40.1377Z" fill="white"/>
</g>
<defs>
<clipPath id="clip0_868_102962">
<rect width="318" height="207" fill="white"/>
</clipPath>
</defs>
</svg>
