<svg width="15" height="16" viewBox="0 0 15 16" fill="none" xmlns="http://www.w3.org/2000/svg">
<path d="M1.23231 4.82239C1.23231 3.67772 1.23231 2.53306 1.23231 1.38839C1.23231 1.25417 1.27045 1.23004 1.39708 1.23079C2.62521 1.23532 3.85309 1.23532 5.08071 1.23079C5.21268 1.23079 5.24319 1.26095 5.24167 1.39216C5.22336 3.67621 5.21268 5.96027 5.19285 8.24432C5.19285 8.39513 5.24243 8.41851 5.37821 8.41851C6.94885 8.41399 8.51872 8.41851 10.0894 8.41248C10.2145 8.41248 10.2564 8.43284 10.2564 8.56932C10.2508 10.5877 10.2508 12.6066 10.2564 14.6259C10.2564 14.7451 10.2251 14.77 10.1084 14.7692C8.50652 14.7652 6.90461 14.7652 5.30269 14.7692C5.17149 14.7692 5.15013 14.7285 5.15013 14.6116C5.16234 12.6081 5.1692 10.6053 5.18293 8.60175C5.18293 8.46375 5.1486 8.42982 5.00901 8.43057C3.80224 8.43812 2.59546 8.4351 1.38869 8.44113C1.26588 8.44113 1.23002 8.41323 1.23079 8.29032C1.2346 7.13283 1.23231 5.97761 1.23231 4.82239Z" fill="#03B295"/>
<path d="M10.2564 3.89419C10.2564 4.73808 10.2564 5.58268 10.2564 6.42656C10.2564 6.54177 10.224 6.56481 10.1161 6.56409C9.25622 6.55977 8.39703 6.55977 7.53856 6.56409C7.4249 6.56409 7.399 6.53169 7.399 6.42008C7.399 4.73232 7.3942 3.04431 7.38461 1.35606C7.38461 1.24517 7.42058 1.23077 7.51842 1.23077C8.38744 1.23509 9.25646 1.23509 10.1255 1.23077C10.2298 1.23077 10.2564 1.25598 10.2557 1.3611C10.2542 2.20642 10.2564 3.05031 10.2564 3.89419Z" fill="#03B295"/>
<path d="M3.69231 12.1101C3.69231 12.9417 3.69231 13.7765 3.69231 14.605C3.69231 14.7327 3.66306 14.77 3.53417 14.7692C2.81935 14.7618 2.10427 14.7618 1.38892 14.7692C1.26873 14.7692 1.23077 14.743 1.23077 14.6169C1.23552 12.9436 1.23552 11.2695 1.23077 9.59462C1.23077 9.45972 1.2711 9.43591 1.39604 9.43591C2.09425 9.44147 2.79325 9.44385 3.49147 9.43591C3.64566 9.43591 3.66622 9.48353 3.66543 9.62001C3.6591 10.4516 3.66543 11.2864 3.66543 12.1149L3.69231 12.1101Z" fill="#03B295"/>
<path d="M13.5377 11.4829C13.5377 12.5246 13.5377 13.5663 13.5377 14.608C13.5377 14.7333 13.5107 14.7715 13.3915 14.7691C12.9427 14.7606 12.4932 14.7621 12.0436 14.7691C11.9369 14.7691 11.8974 14.7489 11.8974 14.6212C11.9018 12.5326 11.9018 10.4438 11.8974 8.35468C11.8974 8.23245 11.9274 8.20364 12.04 8.2052C12.4939 8.2122 12.9485 8.21376 13.4025 8.2052C13.5245 8.2052 13.5392 8.24646 13.5384 8.36091C13.5362 9.39949 13.5377 10.4412 13.5377 11.4829Z" fill="#03B295"/>
<path d="M11.8996 6.56411C11.8996 4.84442 11.904 3.12472 11.8996 1.40575C11.8996 1.25765 11.9397 1.22745 12.082 1.23105C12.5247 1.2404 12.9674 1.2368 13.4108 1.23105C13.5034 1.23105 13.5385 1.24687 13.5385 1.34967C13.5351 3.04013 13.5351 4.73034 13.5385 6.42032C13.5385 6.52241 13.5129 6.55476 13.4057 6.55404C12.9032 6.55404 12.3999 6.55404 11.8974 6.55907L11.8996 6.56411Z" fill="#03B295"/>
<path d="M13.5421 5.02598e-05H14.4771C14.6694 5.02598e-05 14.7686 0.105777 14.7692 0.312886C14.7692 0.92697 14.7692 1.54081 14.7692 2.15442C14.7692 2.34125 14.668 2.45784 14.5142 2.46146C14.3604 2.46508 14.2444 2.34704 14.2444 2.15369C14.2444 1.67502 14.2383 1.19563 14.2444 0.716965C14.2444 0.580099 14.2066 0.553306 14.0879 0.554754C13.6157 0.561996 13.1482 0.554754 12.678 0.554754C12.6268 0.556114 12.5755 0.552722 12.5249 0.544616C12.4619 0.536083 12.4043 0.501981 12.3641 0.44932C12.3238 0.396658 12.3038 0.329437 12.3083 0.261471C12.3104 0.190464 12.3385 0.123211 12.3865 0.0742805C12.4345 0.0253497 12.4985 -0.00131934 12.5647 5.02598e-05C12.8905 5.02598e-05 13.2163 5.02598e-05 13.5421 5.02598e-05Z" fill="#03B295"/>
<path d="M13.53 16C13.2229 16 12.9151 16 12.608 16C12.4218 16 12.3084 15.8944 12.3077 15.7274C12.307 15.5605 12.4164 15.4498 12.6033 15.4491C13.1062 15.4491 13.6097 15.4448 14.1125 15.4491C14.2185 15.4491 14.2475 15.4173 14.2434 15.3045C14.238 14.831 14.2434 14.3575 14.2434 13.884C14.2434 13.6628 14.3386 13.5385 14.5067 13.5385C14.6747 13.5385 14.7692 13.6621 14.7692 13.884C14.7692 14.4768 14.7692 15.0696 14.7692 15.6624C14.7692 15.8988 14.6768 15.9957 14.454 15.9964L13.53 16Z" fill="#03B295"/>
<path d="M11.8916 6.56412C11.888 7.05677 11.8814 7.54864 11.8843 8.04051C11.8843 8.16328 11.8633 8.20814 11.7389 8.20499C11.2882 8.19633 10.8367 8.19791 10.3859 8.20499C10.2768 8.20499 10.255 8.16958 10.2565 8.0594C10.2623 7.61553 10.2645 7.17089 10.2565 6.72624C10.2565 6.5893 10.2994 6.56884 10.4106 6.56884C10.9057 6.56884 11.4016 6.56884 11.8974 6.56884L11.8916 6.56412Z" fill="#03B295"/>
<path d="M1.42958 0.000488202C1.78855 0.000488202 2.14831 0.000488202 2.50729 0.000488202C2.72662 0.00198332 2.87336 0.120845 2.87178 0.293532C2.8702 0.466218 2.72504 0.58209 2.50334 0.582838C1.9211 0.582838 1.33806 0.582838 0.755815 0.582838C0.634317 0.582838 0.598025 0.60975 0.598025 0.727864C0.605914 1.16519 0.598025 1.60326 0.598025 2.04133C0.598025 2.09291 0.598025 2.14449 0.598025 2.19607C0.593566 2.26845 0.55984 2.33642 0.503858 2.38584C0.447876 2.43527 0.373945 2.46235 0.297435 2.46146C0.258714 2.46235 0.220195 2.4559 0.184147 2.44248C0.148098 2.42906 0.115248 2.40893 0.0875318 2.3833C0.0598152 2.35766 0.0377921 2.32703 0.0227595 2.29321C0.00772681 2.25939 -1.1572e-05 2.22305 1.29886e-08 2.18635C1.29886e-08 1.54694 0.00131493 0.908026 0.00394477 0.26961C0.00552267 0.101409 0.1357 0.00273088 0.335304 0.00123576C0.6998 -0.00100692 1.06508 0.000488202 1.42958 0.000488202Z" fill="#03B295"/>
<path d="M1.42699 15.9962C1.0727 15.9962 0.716824 15.9962 0.365686 15.9962C0.112394 15.9962 0.00192356 15.8952 0.00113448 15.6625C0.00113448 15.0542 0.00113448 14.4458 0.00113448 13.8375C-0.00399537 13.7834 0.00835236 13.7291 0.0365388 13.6817C0.0647252 13.6344 0.107417 13.5964 0.158949 13.5726C0.209694 13.5468 0.26712 13.5352 0.324537 13.5392C0.381955 13.5432 0.436999 13.5626 0.483258 13.5951C0.526366 13.6268 0.560075 13.6685 0.581095 13.7162C0.602115 13.764 0.60973 13.8161 0.603197 13.8674C0.603197 14.3261 0.607932 14.7848 0.599252 15.2435C0.599252 15.3759 0.626869 15.4201 0.776004 15.4178C1.34729 15.4081 1.91937 15.4133 2.49066 15.4178C2.72738 15.4178 2.87336 15.5346 2.87178 15.7104C2.8702 15.8863 2.72501 16 2.4875 16C2.13479 15.997 1.78049 15.9962 1.42699 15.9962Z" fill="#03B295"/>
</svg>
